# xmcd CD database file
#
# Track frame offsets:
#	150
#	57165
#	113070
#	160583
#	209170
#	221800
#	235733
#	247683
#	257493
#
# Disc length: 3617 seconds
#
# Revision: 5
# Processed by: cddbd v1.5.2PL0 Copyright (c) Steve Scherf et al.
# Submitted via: CDex 1.51
#
DISCID=760e1f09
DTITLE=Charlie Parker - Vol. 111 - Jatp - Bird With Strings
DYEAR=1962
DGENRE=Jazz
TTITLE0=The Opener
TTITLE1=Lester Leaps In
TTITLE2=Embraceable You
TTITLE3=The Closer
TTITLE4=What Is This Thing Called Love
TTITLE5=April In Paris
TTITLE6=Repetition
TTITLE7=Easy To Love
TTITLE8=Rocker
EXTD=Also Roy Eldridge, Flip Phillips, Ray Brown YEAR: 1962
EXTT0=
EXTT1=
EXTT2=
EXTT3=
EXTT4=
EXTT5=
EXTT6=
EXTT7=
EXTT8=
PLAYORDER=
